<?xml version="1.0" standalone="no"?>
<!DOCTYPE svg PUBLIC "-//W3C//DTD SVG 20010904//EN"
 "http://www.w3.org/TR/2001/REC-SVG-20010904/DTD/svg10.dtd">
<svg version="1.0" xmlns="http://www.w3.org/2000/svg"
 width="633.000000pt" height="623.000000pt" viewBox="0 0 633.000000 623.000000"
 preserveAspectRatio="xMidYMid meet">
<metadata>
Created by potrace 1.13, written by Peter Selinger 2001-2015
</metadata>
<g transform="translate(0.000000,623.000000) scale(0.100000,-0.100000)"
fill="#000000" stroke="none">
<path d="M3095 6223 c-366 -19 -623 -65 -925 -163 -370 -120 -769 -347 -1079
-615 -68 -58 -259 -250 -323 -325 -283 -327 -516 -757 -633 -1165 -9 -33 -21
-71 -25 -85 -51 -157 -110 -589 -110 -810 0 -221 50 -599 106 -795 8 -27 19
-68 25 -90 17 -59 69 -216 84 -250 7 -16 25 -59 40 -95 110 -266 317 -602 506
-822 372 -433 850 -756 1384 -936 239 -80 269 -86 328 -56 102 52 144 161 97
253 -20 40 -85 101 -107 101 -18 0 -299 94 -363 121 -103 44 -290 139 -345
174 -31 19 -57 35 -60 35 -5 0 -126 81 -135 90 -3 3 -50 39 -105 80 -112 83
-349 313 -448 436 -36 44 -95 125 -131 180 -36 54 -70 104 -76 111 -5 7 -10
15 -10 17 0 3 -15 29 -33 58 -53 84 -143 276 -192 408 -15 41 -31 84 -35 95
-5 11 -16 45 -25 75 -8 30 -20 69 -24 85 -15 50 -40 166 -73 350 -9 47 -13
168 -13 370 0 303 1 305 44 551 15 81 70 289 91 339 4 11 23 61 41 110 39 108
139 320 185 393 19 29 34 54 34 57 0 8 151 228 185 270 226 278 470 494 744
658 246 148 497 255 744 318 20 5 54 13 75 19 20 5 75 16 122 24 47 8 117 21
155 28 96 18 604 18 700 0 39 -7 111 -20 160 -29 50 -9 115 -22 145 -30 30 -8
73 -19 94 -24 130 -32 352 -118 501 -195 363 -186 677 -438 908 -728 79 -99
82 -103 160 -221 182 -275 315 -574 382 -860 9 -38 20 -88 26 -110 14 -60 27
-153 45 -330 22 -225 12 -457 -31 -705 -34 -197 -31 -255 20 -306 43 -44 78
-58 140 -59 50 0 67 5 105 30 54 37 73 73 95 185 9 47 20 105 25 130 23 111
42 409 37 560 -6 168 -21 333 -37 420 -48 261 -104 478 -150 585 -5 11 -12 31
-16 45 -8 29 -46 115 -132 300 -22 47 -96 175 -162 280 -46 74 -174 256 -190
270 -3 3 -25 30 -49 60 -76 94 -362 371 -471 456 -240 186 -565 372 -790 453
-19 7 -44 17 -55 21 -11 5 -49 18 -85 30 -291 98 -571 152 -850 165 -69 3
-138 7 -155 9 -16 1 -57 1 -90 -1z"/>
<path d="M2965 5569 c-185 -27 -369 -67 -450 -99 -11 -4 -69 -27 -130 -50 -94
-36 -249 -109 -385 -181 -112 -58 -373 -237 -465 -318 -101 -90 -270 -266
-342 -357 -109 -140 -280 -435 -333 -574 -7 -19 -19 -48 -26 -65 -35 -84 -83
-254 -124 -440 -6 -27 -17 -130 -24 -228 -12 -149 -12 -206 0 -358 7 -100 18
-207 24 -238 20 -95 61 -265 70 -286 4 -11 16 -45 24 -75 9 -30 21 -64 26 -75
5 -11 28 -65 52 -120 23 -55 57 -126 75 -158 18 -33 33 -61 33 -63 0 -5 73
-124 127 -207 145 -223 442 -523 628 -637 22 -13 42 -27 45 -30 32 -38 330
-189 490 -249 156 -58 159 -59 205 -70 22 -6 58 -15 80 -21 60 -15 255 -47
380 -61 203 -22 561 5 790 60 109 26 136 34 210 57 256 82 499 202 694 342
117 83 328 287 428 412 168 212 337 528 427 800 69 209 97 348 122 618 15 160
15 187 0 350 -9 97 -21 206 -27 242 -15 98 -64 297 -89 365 -104 282 -201 482
-262 538 -38 35 -44 37 -108 37 -71 0 -96 -9 -186 -66 -28 -18 -73 -45 -100
-60 -27 -15 -75 -44 -107 -66 -32 -21 -60 -38 -62 -38 -2 0 -57 -33 -122 -73
-125 -78 -215 -132 -513 -310 -102 -60 -234 -140 -295 -177 -343 -209 -444
-270 -478 -289 -21 -12 -95 -56 -165 -99 -70 -43 -161 -98 -202 -123 -64 -39
-79 -53 -102 -100 -45 -89 -35 -155 36 -229 37 -40 93 -63 147 -62 41 1 89 25
232 113 73 45 148 91 167 102 19 10 114 68 210 127 373 228 491 300 494 300 2
0 95 56 205 125 111 69 206 125 211 125 6 0 10 5 10 10 0 6 4 10 9 10 9 0 178
102 446 267 60 36 72 40 81 28 12 -16 98 -269 120 -352 58 -224 78 -535 49
-763 -24 -185 -88 -452 -117 -484 -4 -6 -8 -16 -8 -22 0 -14 -55 -137 -102
-229 -115 -225 -318 -479 -495 -622 -27 -21 -53 -43 -59 -49 -7 -6 -45 -33
-85 -60 -41 -27 -80 -55 -87 -61 -7 -7 -20 -13 -28 -13 -8 0 -14 -4 -14 -10 0
-5 -4 -10 -9 -10 -5 0 -37 -16 -71 -35 -35 -20 -95 -49 -134 -66 -39 -16 -78
-33 -86 -37 -8 -5 -42 -16 -75 -26 -33 -11 -69 -22 -80 -26 -52 -19 -95 -30
-155 -41 -36 -6 -87 -15 -115 -20 -152 -27 -511 -27 -660 0 -27 5 -79 14 -115
20 -60 11 -103 22 -155 41 -11 4 -47 15 -80 26 -33 10 -67 21 -75 26 -8 4 -37
17 -65 29 -108 46 -331 172 -388 219 -6 5 -50 40 -97 77 -105 83 -304 284
-375 378 -64 86 -158 239 -195 320 -89 193 -119 285 -180 552 -21 91 -32 342
-21 502 10 154 15 189 52 346 86 372 292 733 570 1000 105 100 162 150 199
174 14 8 27 18 30 22 25 31 354 214 420 234 14 4 43 15 65 25 74 32 172 62
280 85 44 9 98 21 120 26 22 6 137 12 255 16 208 5 347 -3 465 -28 28 -5 80
-13 117 -16 61 -5 72 -2 113 21 121 71 138 215 37 315 -46 45 -51 47 -182 78
-282 67 -493 87 -665 62z"/>
<path d="M3070 4304 c-240 -26 -580 -192 -770 -376 -240 -232 -381 -564 -380
-895 0 -99 31 -284 61 -368 43 -118 127 -284 175 -345 113 -141 161 -191 248
-258 130 -100 290 -180 433 -218 76 -20 248 -44 313 -44 119 0 308 36 430 83
222 84 494 286 619 459 22 31 41 60 41 63 0 3 11 23 25 45 28 44 90 222 100
288 10 66 -2 115 -42 161 -57 67 -132 87 -204 57 -59 -25 -95 -73 -134 -181
-20 -54 -51 -127 -70 -161 -116 -207 -311 -353 -552 -414 -119 -30 -294 -28
-420 6 -154 41 -283 114 -384 217 -93 94 -187 263 -236 422 -25 84 -25 320 1
420 91 350 398 614 748 644 92 8 229 2 309 -14 73 -14 156 30 193 102 20 40
21 109 1 155 -17 42 -75 96 -113 104 -15 3 -38 9 -52 14 -82 26 -255 43 -340
34z"/>
<path d="M4800 3209 c-35 -14 -69 -48 -90 -89 -13 -26 -19 -69 -23 -175 -5
-133 -10 -167 -44 -295 -27 -104 -37 -135 -69 -212 -136 -321 -391 -594 -709
-758 -49 -25 -112 -54 -140 -64 -27 -10 -59 -22 -70 -27 -11 -5 -66 -20 -121
-34 -142 -35 -331 -49 -495 -36 -118 10 -301 46 -354 70 -11 5 -46 19 -78 30
-80 29 -168 74 -267 138 -268 174 -478 428 -590 718 -4 11 -12 32 -18 47 -31
78 -64 236 -79 385 -19 186 -29 211 -98 250 -61 35 -126 26 -182 -24 -55 -49
-63 -116 -37 -316 69 -546 360 -1019 809 -1315 225 -149 449 -239 715 -288
134 -25 486 -25 620 0 523 96 977 399 1250 836 66 105 150 268 150 290 0 9 4
20 9 25 5 6 20 46 34 90 24 73 36 121 67 260 15 69 29 327 20 376 -17 92 -124
152 -210 118z"/>
</g>
</svg>
