<?xml version="1.0" encoding="UTF-8" standalone="no"?>
<svg width="40px" height="90px" viewBox="0 0 40 90" version="1.1" xmlns="http://www.w3.org/2000/svg" xmlns:xlink="http://www.w3.org/1999/xlink">
    <!-- Generator: Sketch 3.6.1 (26313) - http://www.bohemiancoding.com/sketch -->
    <title>availability</title>
    <desc>Created with Sketch.</desc>
    <defs></defs>
    <g id="Page-1" stroke="none" stroke-width="1" fill="none" fill-rule="evenodd">
        <g id="availability" fill="#73AE32">
            <g id="Group">
                <circle id="Oval" cx="21.055" cy="17.508" r="7.354"></circle>
                <path d="M39.17,55.265 L32.104,28.893 L32.102,28.894 C31.779,27.69 30.668,26.912 29.473,26.956 L29.473,26.949 L14.159,26.949 L5.859,1.83 L5.856,1.83 C5.402,0.455 3.918,-0.292 2.543,0.163 C1.168,0.618 0.421,2.101 0.875,3.476 L0.873,3.477 L6.624,20.883 C6.633,20.915 6.635,20.948 6.646,20.98 L6.644,20.981 L12.67,39.218 L12.67,56.29 L12.67,60.567 L12.67,86.364 L12.68,86.364 C12.719,88.361 14.344,89.97 16.35,89.97 C18.356,89.97 19.981,88.361 20.02,86.364 L20.03,86.364 L20.03,60.567 L22.113,60.567 L22.113,86.364 L22.12,86.364 C22.159,88.361 23.784,89.97 25.79,89.97 C27.796,89.97 29.421,88.361 29.46,86.364 L29.472,86.364 L29.472,60.567 L29.472,56.29 L29.472,39.359 L34.098,56.624 L34.1,56.623 C34.475,58.022 35.913,58.852 37.312,58.478 C38.711,58.104 39.542,56.665 39.167,55.266 L39.17,55.265 L39.17,55.265 Z" id="Shape"></path>
            </g>
        </g>
    </g>
</svg>