<svg xmlns="http://www.w3.org/2000/svg" xmlns:xlink="http://www.w3.org/1999/xlink" version="1.1" x="0px" y="0px" viewBox="0 0 100 125" enable-background="new 0 0 100 100" xml:space="preserve"><g><circle cx="51.055" cy="22.508" r="7.354"/><path d="M69.17,60.265l-7.066-26.372l-0.002,0.001c-0.323-1.204-1.434-1.982-2.629-1.938v-0.007H44.159l-8.3-25.119L35.856,6.83   c-0.454-1.375-1.938-2.122-3.313-1.667s-2.122,1.938-1.668,3.313l-0.002,0.001l5.751,17.406c0.009,0.032,0.011,0.065,0.022,0.097   l-0.002,0.001l6.026,18.237V61.29v4.277v25.797h0.01c0.039,1.997,1.664,3.606,3.67,3.606s3.631-1.609,3.67-3.606h0.01V65.567h2.083   v25.797h0.007c0.039,1.997,1.664,3.606,3.67,3.606c2.006,0,3.631-1.609,3.67-3.606h0.012V65.567V61.29V44.359l4.626,17.265   l0.002-0.001c0.375,1.399,1.813,2.229,3.212,1.855s2.23-1.813,1.855-3.212L69.17,60.265z"/></g><text x="0" y="115" fill="#000000" font-size="5px" font-weight="bold" font-family="'Helvetica Neue', Helvetica, Arial-Unicode, Arial, Sans-serif">Created by Gerard Higgins</text><text x="0" y="120" fill="#000000" font-size="5px" font-weight="bold" font-family="'Helvetica Neue', Helvetica, Arial-Unicode, Arial, Sans-serif">from the Noun Project</text></svg>